<?xml version="1.0" encoding="UTF-8"?>
<svg width="500px" height="300px" viewBox="0 0 500 300" version="1.1" xmlns="http://www.w3.org/2000/svg" xmlns:xlink="http://www.w3.org/1999/xlink">
    <title>新手示意图</title>
    <defs>
        <circle id="path-1" cx="35" cy="96" r="35"></circle>
        <filter x="-12.9%" y="-12.9%" width="125.7%" height="125.7%" filterUnits="objectBoundingBox" id="filter-2">
            <feOffset dx="0" dy="0" in="SourceAlpha" result="shadowOffsetOuter1"></feOffset>
            <feGaussianBlur stdDeviation="3" in="shadowOffsetOuter1" result="shadowBlurOuter1"></feGaussianBlur>
            <feColorMatrix values="0 0 0 0 0   0 0 0 0 0   0 0 0 0 0  0 0 0 0.298350087 0" type="matrix" in="shadowBlurOuter1"></feColorMatrix>
        </filter>
        <circle id="path-3" cx="206" cy="35" r="35"></circle>
        <filter x="-12.9%" y="-12.9%" width="125.7%" height="125.7%" filterUnits="objectBoundingBox" id="filter-4">
            <feOffset dx="0" dy="0" in="SourceAlpha" result="shadowOffsetOuter1"></feOffset>
            <feGaussianBlur stdDeviation="3" in="shadowOffsetOuter1" result="shadowBlurOuter1"></feGaussianBlur>
            <feColorMatrix values="0 0 0 0 0   0 0 0 0 0   0 0 0 0 0  0 0 0 0.298350087 0" type="matrix" in="shadowBlurOuter1"></feColorMatrix>
        </filter>
        <linearGradient x1="81.817637%" y1="50%" x2="-2.23182334e-12%" y2="50%" id="linearGradient-5">
            <stop stop-color="#ECECEC" offset="0%"></stop>
            <stop stop-color="#CECECE" offset="100%"></stop>
        </linearGradient>
        <linearGradient x1="100%" y1="57.9604081%" x2="8.0066214e-13%" y2="50%" id="linearGradient-6">
            <stop stop-color="#EEEEEE" offset="0%"></stop>
            <stop stop-color="#CBCBCB" offset="100%"></stop>
        </linearGradient>
    </defs>
    <g id="新手示意图" stroke="none" stroke-width="1" fill="none" fill-rule="evenodd">
        <rect id="矩形备份-2" fill="#D8D8D8" x="0" y="0" width="500" height="300" rx="8"></rect>
        <rect id="矩形备份-153" fill="#E4E4E4" x="0" y="38" width="500" height="262" rx="8"></rect>
        <rect id="矩形备份-154" fill="#EFEFEF" x="0" y="31" width="500" height="37"></rect>
        <path d="M5,73 L91,73 L91,295 L9,295 C6.790861,295 5,293.209139 5,291 L5,73 L5,73 Z" id="矩形备份-157" fill="#EFEFEF"></path>
        <rect id="矩形备份-160" fill="#FFFFFF" x="96" y="73" width="308" height="222"></rect>
        <path d="M409,73 L495,73 L495,291 C495,293.209139 493.209139,295 491,295 L409,295 L409,295 L409,73 Z" id="矩形备份-161" fill="#EFEFEF"></path>
        <rect id="矩形备份-162" fill="#EFEFEF" transform="translate(56.000000, 26.000000) scale(1, -1) translate(-56.000000, -26.000000) " x="41" y="15" width="30" height="22"></rect>
        <rect id="矩形备份-163" fill="#EFEFEF" transform="translate(91.000000, 20.500000) scale(1, -1) translate(-91.000000, -20.500000) " x="76" y="15" width="30" height="11" rx="2"></rect>
        <rect id="矩形备份-164" fill="#EFEFEF" transform="translate(126.000000, 20.500000) scale(1, -1) translate(-126.000000, -20.500000) " x="111" y="15" width="30" height="11" rx="2"></rect>
        <rect id="矩形备份-165" fill="#EFEFEF" transform="translate(161.000000, 20.500000) scale(1, -1) translate(-161.000000, -20.500000) " x="146" y="15" width="30" height="11" rx="2"></rect>
        <rect id="矩形备份-166" fill="#EFEFEF" transform="translate(196.000000, 20.500000) scale(1, -1) translate(-196.000000, -20.500000) " x="181" y="15" width="30" height="11" rx="2"></rect>
        <rect id="矩形备份-167" fill="#EFEFEF" transform="translate(21.000000, 20.500000) scale(1, -1) translate(-21.000000, -20.500000) " x="6" y="15" width="30" height="11" rx="2"></rect>
        <rect id="矩形备份-168" fill="#D8D8D8" transform="translate(20.000000, 102.000000) scale(1, -1) translate(-20.000000, -102.000000) " x="13" y="95" width="14" height="14" rx="2"></rect>
        <rect id="矩形备份-169" fill="#D8D8D8" transform="translate(20.000000, 191.000000) scale(1, -1) translate(-20.000000, -191.000000) " x="13" y="184" width="14" height="14" rx="2"></rect>
        <rect id="矩形备份-170" fill="#D8D8D8" transform="translate(21.500000, 85.000000) scale(1, -1) translate(-21.500000, -85.000000) " x="11" y="81" width="21" height="8" rx="4"></rect>
        <rect id="矩形备份-171" fill="#D8D8D8" transform="translate(425.500000, 85.000000) scale(1, -1) translate(-425.500000, -85.000000) " x="415" y="81" width="21" height="8" rx="4"></rect>
        <rect id="矩形备份-172" fill="#D8D8D8" transform="translate(425.500000, 168.000000) scale(1, -1) translate(-425.500000, -168.000000) " x="415" y="164" width="21" height="8" rx="4"></rect>
        <rect id="矩形备份-173" fill="#D8D8D8" transform="translate(425.500000, 122.000000) scale(1, -1) translate(-425.500000, -122.000000) " x="415" y="118" width="21" height="8" rx="4"></rect>
        <rect id="矩形备份-174" fill="#D8D8D8" transform="translate(425.500000, 144.000000) scale(1, -1) translate(-425.500000, -144.000000) " x="415" y="140" width="21" height="8" rx="4"></rect>
        <rect id="矩形备份-175" fill="#D8D8D8" transform="translate(21.500000, 174.000000) scale(1, -1) translate(-21.500000, -174.000000) " x="11" y="170" width="21" height="8" rx="4"></rect>
        <rect id="矩形备份-176" fill="#D8D8D8" transform="translate(16.000000, 46.000000) scale(1, -1) translate(-16.000000, -46.000000) " x="9" y="39" width="14" height="14" rx="2"></rect>
        <rect id="矩形备份-177" fill="#D8D8D8" transform="translate(47.000000, 46.000000) scale(1, -1) translate(-47.000000, -46.000000) " x="40" y="39" width="14" height="14" rx="2"></rect>
        <rect id="矩形备份-178" fill="#D8D8D8" transform="translate(78.000000, 46.000000) scale(1, -1) translate(-78.000000, -46.000000) " x="71" y="39" width="14" height="14" rx="2"></rect>
        <rect id="矩形备份-179" fill="#D8D8D8" transform="translate(109.000000, 46.000000) scale(1, -1) translate(-109.000000, -46.000000) " x="102" y="39" width="14" height="14" rx="2"></rect>
        <rect id="矩形备份-180" fill="#D8D8D8" transform="translate(140.000000, 46.000000) scale(1, -1) translate(-140.000000, -46.000000) " x="133" y="39" width="14" height="14" rx="2"></rect>
        <rect id="矩形备份-181" fill="#D8D8D8" transform="translate(299.000000, 46.000000) scale(1, -1) translate(-299.000000, -46.000000) " x="292" y="39" width="14" height="14" rx="2"></rect>
        <rect id="矩形备份-182" fill="#D8D8D8" transform="translate(173.000000, 46.000000) scale(1, -1) translate(-173.000000, -46.000000) " x="166" y="39" width="14" height="14" rx="2"></rect>
        <rect id="矩形备份-183" fill="#D8D8D8" transform="translate(332.000000, 46.000000) scale(1, -1) translate(-332.000000, -46.000000) " x="325" y="39" width="14" height="14" rx="2"></rect>
        <g id="编组备份" transform="translate(197.000000, 39.000000)" fill="#D8D8D8">
            <rect id="矩形备份-130" transform="translate(40.000000, 7.000000) scale(1, -1) translate(-40.000000, -7.000000) " x="0" y="0" width="80" height="14" rx="2"></rect>
            <rect id="矩形备份-131" transform="translate(5.000000, 19.000000) scale(1, -1) translate(-5.000000, -19.000000) " x="0" y="17" width="10" height="4" rx="2"></rect>
            <rect id="矩形备份-132" transform="translate(18.000000, 19.000000) scale(1, -1) translate(-18.000000, -19.000000) " x="13" y="17" width="10" height="4" rx="2"></rect>
            <rect id="矩形备份-133" transform="translate(31.000000, 19.000000) scale(1, -1) translate(-31.000000, -19.000000) " x="26" y="17" width="10" height="4" rx="2"></rect>
            <rect id="矩形备份-138" transform="translate(45.000000, 19.000000) scale(1, -1) translate(-45.000000, -19.000000) " x="40" y="17" width="10" height="4" rx="2"></rect>
            <rect id="矩形备份-139" transform="translate(59.000000, 19.000000) scale(1, -1) translate(-59.000000, -19.000000) " x="54" y="17" width="10" height="4" rx="2"></rect>
            <rect id="矩形备份-140" transform="translate(73.000000, 19.000000) scale(1, -1) translate(-73.000000, -19.000000) " x="68" y="17" width="10" height="4" rx="2"></rect>
        </g>
        <rect id="矩形备份-184" fill="#D8D8D8" transform="translate(452.000000, 101.000000) scale(1, -1) translate(-452.000000, -101.000000) " x="415" y="94" width="74" height="14" rx="2"></rect>
        <rect id="矩形备份-185" fill="#D8D8D8" transform="translate(452.000000, 184.000000) scale(1, -1) translate(-452.000000, -184.000000) " x="415" y="177" width="74" height="14" rx="2"></rect>
        <rect id="矩形备份-186" fill="#D8D8D8" transform="translate(16.000000, 58.000000) scale(1, -1) translate(-16.000000, -58.000000) " x="7" y="56" width="18" height="4" rx="2"></rect>
        <rect id="矩形备份-187" fill="#D8D8D8" transform="translate(47.000000, 58.000000) scale(1, -1) translate(-47.000000, -58.000000) " x="38" y="56" width="18" height="4" rx="2"></rect>
        <rect id="矩形备份-188" fill="#D8D8D8" transform="translate(78.000000, 58.000000) scale(1, -1) translate(-78.000000, -58.000000) " x="69" y="56" width="18" height="4" rx="2"></rect>
        <rect id="矩形备份-189" fill="#D8D8D8" transform="translate(109.000000, 58.000000) scale(1, -1) translate(-109.000000, -58.000000) " x="100" y="56" width="18" height="4" rx="2"></rect>
        <rect id="矩形备份-190" fill="#D8D8D8" transform="translate(140.000000, 58.000000) scale(1, -1) translate(-140.000000, -58.000000) " x="131" y="56" width="18" height="4" rx="2"></rect>
        <rect id="矩形备份-191" fill="#D8D8D8" transform="translate(299.000000, 58.000000) scale(1, -1) translate(-299.000000, -58.000000) " x="290" y="56" width="18" height="4" rx="2"></rect>
        <rect id="矩形备份-192" fill="#D8D8D8" transform="translate(173.000000, 58.000000) scale(1, -1) translate(-173.000000, -58.000000) " x="164" y="56" width="18" height="4" rx="2"></rect>
        <rect id="矩形备份-193" fill="#D8D8D8" transform="translate(332.000000, 58.000000) scale(1, -1) translate(-332.000000, -58.000000) " x="323" y="56" width="18" height="4" rx="2"></rect>
        <rect id="矩形备份-194" fill="#D8D8D8" transform="translate(20.000000, 121.000000) scale(1, -1) translate(-20.000000, -121.000000) " x="13" y="114" width="14" height="14" rx="2"></rect>
        <rect id="矩形备份-195" fill="#D8D8D8" transform="translate(20.000000, 140.000000) scale(1, -1) translate(-20.000000, -140.000000) " x="13" y="133" width="14" height="14" rx="2"></rect>
        <rect id="矩形备份-196" fill="#D8D8D8" transform="translate(57.500000, 102.000000) scale(1, -1) translate(-57.500000, -102.000000) " x="32" y="99" width="51" height="6" rx="3"></rect>
        <rect id="矩形备份-197" fill="#D8D8D8" transform="translate(57.500000, 191.000000) scale(1, -1) translate(-57.500000, -191.000000) " x="32" y="188" width="51" height="6" rx="3"></rect>
        <rect id="矩形备份-198" fill="#D8D8D8" transform="translate(57.500000, 121.000000) scale(1, -1) translate(-57.500000, -121.000000) " x="32" y="118" width="51" height="6" rx="3"></rect>
        <rect id="矩形备份-199" fill="#D8D8D8" transform="translate(57.500000, 140.000000) scale(1, -1) translate(-57.500000, -140.000000) " x="32" y="137" width="51" height="6" rx="3"></rect>
        <g id="编组-27备份" transform="translate(57.000000, 38.000000)">
            <g id="椭圆形">
                <use fill="black" fill-opacity="1" filter="url(#filter-2)" xlink:href="#path-1"></use>
                <use fill="#FFFFFF" fill-rule="evenodd" xlink:href="#path-1"></use>
            </g>
            <g id="椭圆形备份-27">
                <use fill="black" fill-opacity="1" filter="url(#filter-4)" xlink:href="#path-3"></use>
                <use fill="#FFFFFF" fill-rule="evenodd" xlink:href="#path-3"></use>
            </g>
            <path d="M91.3376599,121.497472 C88.026926,121.737512 83.350116,120.752993 80.3650567,119.335892 L83.1008301,109.467424 C83.1008301,109.467424 83.280877,108.723923 82.6051171,109.034096 L61.743265,119.205522 C61.5600758,119.270709 61.4657521,119.468401 61.5325859,119.647077 C61.547054,119.685757 61.5685165,119.721593 61.5959542,119.752883 C61.8297808,120.101826 72.4845316,136.901565 74.4533349,139.827661 C74.6380578,140.108184 74.7923835,140.083096 74.8859147,139.784328 C75.3933186,138.187861 76.6785715,132.90073 77.3683582,130.519723 C100.458777,134.624931 109.985289,116.692096 111.43038,112.76021 C111.608088,112.294953 111.488837,112.226533 111.107699,112.570914 C108.914395,114.543695 100.746813,121.303637 91.3376599,121.497472 Z" id="Shape备份" fill="url(#linearGradient-5)" fill-rule="nonzero" transform="translate(86.511104, 124.491201) rotate(-133.000000) translate(-86.511104, -124.491201) "></path>
            <path d="M192.788044,93.7545188 L195.523818,83.8860503 C195.523818,83.8860503 195.703864,83.1425493 195.028105,83.4527231 L174.166252,93.6241486 C173.983063,93.6893363 173.88874,93.8870276 173.955573,94.0657037 C173.970041,94.1043835 173.991504,94.1402195 174.018942,94.1715097 C174.252768,94.5204524 184.907519,111.320191 186.876322,114.246288 C187.061045,114.526811 187.215371,114.501723 187.308902,114.202955 C187.816306,112.606488 189.101559,107.319357 189.791346,104.93835 C208.606147,108.806085 224.529422,110.892501 237.561169,111.197598 C216.136052,103.812215 201.211677,97.9978555 192.788044,93.7545188 Z" id="Shape备份-8" fill="url(#linearGradient-6)" fill-rule="nonzero" transform="translate(205.747631, 98.909828) rotate(-105.000000) translate(-205.747631, -98.909828) "></path>
            <g id="编组备份-13" transform="translate(19.000000, 75.000000)">
                <rect id="矩形" fill="#FFFFFF" x="0" y="0" width="32" height="30"></rect>
                <g id="Group-14" transform="translate(2.000000, 2.000000)">
                    <path d="M2,24 L26,24 L26,6 L28,6 L28,26 L0,26 L0,6 L2,6 L2,24 Z" id="Combined-Shape" fill="#7D7D7D"></path>
                    <rect id="Rectangle" fill="#FFFFFF" x="2" y="6" width="24" height="18"></rect>
                    <rect id="Rectangle" fill="#C2C2C2" x="2" y="10" width="24" height="2"></rect>
                    <rect id="Rectangle-Copy-14" fill="#C2C2C2" x="2" y="18" width="24" height="2"></rect>
                    <rect id="矩形" fill="#4180E3" x="0" y="0" width="28" height="6"></rect>
                    <rect id="矩形" fill="#C0CCE5" x="2" y="2" width="24" height="2"></rect>
                    <rect id="矩形" fill="#7D7D7D" x="8" y="2" width="2" height="2"></rect>
                    <rect id="矩形备份" fill="#7D7D7D" x="18" y="2" width="2" height="2"></rect>
                    <rect id="Rectangle" fill="#C2C2C2" x="8" y="6" width="2" height="18"></rect>
                    <rect id="Rectangle-Copy-15" fill="#C2C2C2" x="18" y="6" width="2" height="18"></rect>
                </g>
            </g>
            <g id="编组-25" transform="translate(192.000000, 9.000000)">
                <polygon id="矩形" fill="#4180E3" points="0 0 28 1.72917236e-13 28 26 -1.36002321e-14 26"></polygon>
                <polygon id="矩形备份-152" fill="#FFFFFF" points="2 2 26 2 26 24 2 24"></polygon>
            </g>
            <path d="M24.44,107.82 C24.27,108.22 23.94,108.79 23.69,109.15 L24.17,109.38 C24.45,109.05 24.77,108.55 25.06,108.1 L24.44,107.82 Z M22.1,109.17 C22,108.8 21.73,108.27 21.45,107.88 L20.91,108.1 C21.18,108.51 21.44,109.06 21.53,109.41 L22.1,109.17 Z M22.59,111.97 L23.28,111.97 L23.28,110.6 C23.76,110.94 24.38,111.43 24.62,111.66 L25.03,111.12 C24.8,110.95 23.94,110.39 23.44,110.1 L25.32,110.1 L25.32,109.48 L23.28,109.48 L23.28,107.63 L22.59,107.63 L22.59,109.48 L20.53,109.48 L20.53,110.1 L22.36,110.1 C21.87,110.75 21.13,111.36 20.43,111.66 C20.57,111.8 20.75,112.05 20.83,112.22 C21.44,111.9 22.09,111.35 22.59,110.76 L22.59,111.97 Z M24.11,113.4 C23.89,113.92 23.57,114.36 23.18,114.72 C22.82,114.54 22.42,114.35 22.05,114.19 C22.19,113.96 22.34,113.68 22.49,113.4 L24.11,113.4 Z M24.6,115.55 C24.38,115.39 24.08,115.21 23.76,115.03 C24.29,114.47 24.7,113.77 24.96,112.91 L24.54,112.74 L24.43,112.77 L22.8,112.77 C22.88,112.59 22.94,112.42 23.01,112.25 L22.35,112.13 C22.28,112.34 22.19,112.55 22.09,112.77 L20.74,112.77 L20.74,113.4 L21.78,113.4 C21.57,113.79 21.35,114.16 21.14,114.46 C21.63,114.64 22.17,114.89 22.67,115.15 C22.02,115.61 21.26,115.93 20.45,116.11 C20.58,116.25 20.73,116.52 20.8,116.68 C21.71,116.44 22.56,116.05 23.27,115.48 C23.61,115.67 23.91,115.87 24.14,116.04 L24.6,115.55 Z M28.07,110.25 C27.92,111.4 27.68,112.4 27.32,113.24 C26.94,112.35 26.66,111.33 26.47,110.25 L28.07,110.25 Z M29.44,110.25 L29.44,109.56 L26.62,109.56 C26.76,109 26.88,108.42 26.96,107.83 L26.28,107.73 C26.03,109.46 25.58,111.13 24.82,112.18 C24.98,112.28 25.26,112.51 25.38,112.63 C25.63,112.25 25.86,111.81 26.06,111.32 C26.28,112.31 26.56,113.21 26.94,113.99 C26.38,114.94 25.6,115.67 24.52,116.2 C24.65,116.34 24.86,116.64 24.93,116.8 C25.95,116.25 26.71,115.55 27.3,114.68 C27.79,115.53 28.42,116.21 29.19,116.68 C29.3,116.49 29.51,116.24 29.68,116.1 C28.85,115.66 28.2,114.92 27.69,114.01 C28.22,112.98 28.55,111.74 28.78,110.25 L29.44,110.25 Z M33.53,112.66 L33.43,111.98 L32.39,112.31 L32.39,110.33 L33.52,110.33 L33.52,109.64 L32.39,109.64 L32.39,107.64 L31.7,107.64 L31.7,109.64 L30.46,109.64 L30.46,110.33 L31.7,110.33 L31.7,112.52 C31.18,112.67 30.71,112.81 30.34,112.92 L30.52,113.63 C30.88,113.52 31.28,113.4 31.7,113.26 L31.7,115.83 C31.7,115.98 31.65,116.02 31.53,116.02 C31.42,116.02 31.02,116.02 30.59,116.01 C30.69,116.22 30.78,116.52 30.81,116.7 C31.44,116.71 31.82,116.68 32.05,116.56 C32.3,116.44 32.39,116.25 32.39,115.84 L32.39,113.03 L33.53,112.66 Z M34.67,111.74 C34.68,111.5 34.68,111.29 34.68,111.07 L34.68,110.64 L36.61,110.64 L36.61,111.74 L34.67,111.74 Z M38.49,108.72 L38.49,109.99 L34.68,109.99 L34.68,108.72 L38.49,108.72 Z M38.56,115.75 L35.49,115.75 L35.49,114.24 L38.56,114.24 L38.56,115.75 Z M39.54,112.38 L39.54,111.74 L37.32,111.74 L37.32,110.64 L39.2,110.64 L39.2,108.07 L33.96,108.07 L33.96,111.07 C33.96,112.65 33.87,114.82 32.84,116.35 C33.01,116.42 33.32,116.63 33.44,116.77 C34.28,115.54 34.55,113.86 34.64,112.38 L36.61,112.38 L36.61,113.61 L34.84,113.61 L34.84,116.78 L35.49,116.78 L35.49,116.37 L38.56,116.37 L38.56,116.74 L39.24,116.74 L39.24,113.61 L37.32,113.61 L37.32,112.38 L39.54,112.38 Z M48.43,112.54 C48,112.96 47.3,113.51 46.7,113.92 C46.26,113.4 45.91,112.81 45.64,112.15 L49.3,112.15 L49.3,111.51 L45.35,111.51 L45.35,110.62 L48.54,110.62 L48.54,110 L45.35,110 L45.35,109.16 L48.99,109.16 L48.99,108.52 L45.35,108.52 L45.35,107.63 L44.61,107.63 L44.61,108.52 L41.08,108.52 L41.08,109.16 L44.61,109.16 L44.61,110 L41.59,110 L41.59,110.62 L44.61,110.62 L44.61,111.51 L40.69,111.51 L40.69,112.15 L43.99,112.15 C43.05,112.99 41.64,113.77 40.4,114.16 C40.56,114.31 40.78,114.58 40.88,114.76 C41.43,114.55 42.03,114.28 42.6,113.95 L42.6,115.43 C42.6,115.82 42.38,116 42.22,116.08 C42.34,116.25 42.49,116.57 42.54,116.76 C42.77,116.6 43.13,116.48 45.9,115.59 C45.86,115.44 45.8,115.15 45.78,114.95 L43.36,115.68 L43.36,113.47 C43.95,113.07 44.49,112.62 44.92,112.15 C45.68,114.24 47.08,115.74 49.13,116.43 C49.24,116.23 49.46,115.94 49.62,115.79 C48.63,115.5 47.8,115.01 47.11,114.36 C47.74,113.97 48.47,113.46 49.04,112.97 L48.43,112.54 Z" id="形状结合" fill="#838383" fill-rule="nonzero"></path>
            <path d="M193.24,44.71 L193.24,43.64 L195.6,43.64 L195.6,44.71 L193.24,44.71 Z M193.24,41.99 L195.6,41.99 L195.6,43.04 L193.24,43.04 L193.24,41.99 Z M198.83,43.04 L196.35,43.04 L196.35,41.99 L198.83,41.99 L198.83,43.04 Z M198.83,44.71 L196.35,44.71 L196.35,43.64 L198.83,43.64 L198.83,44.71 Z M200.44,46.29 L196.35,46.29 L196.35,45.34 L199.58,45.34 L199.58,41.36 L197.91,41.36 C198.22,40.94 198.58,40.42 198.87,39.95 L198.08,39.68 C197.84,40.18 197.43,40.88 197.08,41.36 L194.67,41.36 L195.08,41.15 C194.88,40.74 194.42,40.13 194,39.68 L193.38,39.98 C193.74,40.39 194.13,40.96 194.35,41.36 L192.51,41.36 L192.51,45.34 L195.6,45.34 L195.6,46.29 L191.57,46.29 L191.57,46.98 L195.6,46.98 L195.6,48.76 L196.35,48.76 L196.35,46.98 L200.44,46.98 L200.44,46.29 Z M209.55,40.42 L202.51,40.42 L202.51,41.13 L209.55,41.13 L209.55,40.42 Z M208.05,47.88 C207.66,47.88 207.58,47.81 207.58,47.47 L207.58,43.92 L210.39,43.92 L210.39,43.2 L201.64,43.2 L201.64,43.92 L204.17,43.92 C204.02,45.79 203.65,47.35 201.52,48.16 C201.69,48.29 201.9,48.56 201.99,48.74 C204.29,47.81 204.77,46.06 204.96,43.92 L206.83,43.92 L206.83,47.48 C206.83,48.33 207.07,48.59 207.96,48.59 L209.39,48.59 C210.26,48.59 210.46,48.12 210.54,46.42 C210.34,46.36 210.02,46.23 209.85,46.09 C209.8,47.62 209.74,47.88 209.34,47.88 L208.05,47.88 Z M218.99,45.77 L218.99,47.57 L216.05,47.57 L216.05,45.77 L218.99,45.77 Z M215.34,48.75 L216.05,48.75 L216.05,48.24 L218.99,48.24 L218.99,48.73 L219.72,48.73 L219.72,45.11 L215.34,45.11 L215.34,48.75 Z M216.37,41.31 L219.02,41.31 C218.66,41.93 218.17,42.47 217.59,42.94 C217.06,42.5 216.62,41.98 216.31,41.41 L216.37,41.31 Z M219.57,40.61 L219.44,40.64 L216.73,40.64 C216.86,40.36 216.99,40.07 217.1,39.78 L216.44,39.6 C216.05,40.67 215.4,41.71 214.66,42.39 C214.81,42.52 215.03,42.83 215.12,42.96 C215.4,42.68 215.68,42.36 215.93,42 C216.24,42.48 216.61,42.93 217.06,43.32 C216.29,43.84 215.4,44.23 214.5,44.5 L214.84,44.09 C214.66,43.83 213.89,42.76 213.64,42.47 L213.64,42.25 L214.73,42.25 L214.73,41.55 L213.64,41.55 L213.64,39.63 L212.93,39.63 L212.93,41.55 L211.53,41.55 L211.53,42.25 L212.82,42.25 C212.53,43.6 211.93,45.17 211.32,45.99 C211.45,46.17 211.63,46.49 211.7,46.7 C212.16,46.03 212.6,44.93 212.93,43.81 L212.93,48.76 L213.64,48.76 L213.64,43.37 C213.89,43.78 214.17,44.26 214.33,44.56 L214.28,44.57 C214.4,44.71 214.6,45.03 214.67,45.22 C215.7,44.89 216.73,44.41 217.62,43.78 C218.41,44.36 219.35,44.81 220.36,45.11 C220.41,44.91 220.53,44.61 220.64,44.43 C219.73,44.21 218.88,43.84 218.16,43.36 C218.95,42.69 219.6,41.88 220.03,40.9 L219.57,40.61 Z M203.44,53.82 C203.2,54.24 202.77,54.83 202.44,55.22 L203.04,55.45 C203.39,55.1 203.84,54.57 204.21,54.06 L203.44,53.82 Z M199.55,55.19 C199.36,54.81 198.89,54.24 198.46,53.85 L197.84,54.15 C198.26,54.55 198.71,55.14 198.9,55.52 L199.55,55.19 Z M200.61,58.21 L201.34,58.21 L201.34,56.72 C202.6,57.35 204.09,58.15 204.89,58.67 L205.25,58.07 C204.47,57.58 203.03,56.85 201.8,56.26 L205.29,56.26 L205.29,55.57 L201.34,55.57 L201.34,53.64 L200.61,53.64 L200.61,55.57 L196.75,55.57 L196.75,56.26 L200.01,56.26 C199.2,57.1 197.87,57.79 196.56,58.1 C196.73,58.25 196.94,58.52 197.04,58.7 C198.4,58.31 199.74,57.52 200.61,56.54 L200.61,58.21 Z M205.33,60.2 L205.33,59.5 L201.22,59.5 C201.3,59.17 201.36,58.81 201.41,58.43 L200.64,58.43 C200.59,58.81 200.53,59.18 200.44,59.5 L196.7,59.5 L196.7,60.2 L200.17,60.2 C199.67,61.12 198.67,61.75 196.49,62.09 C196.64,62.25 196.82,62.57 196.88,62.77 C199.36,62.33 200.45,61.5 200.98,60.26 C201.75,61.66 203.12,62.45 205.12,62.77 C205.22,62.55 205.42,62.24 205.59,62.07 C203.78,61.87 202.46,61.25 201.73,60.2 L205.33,60.2 Z M214.9,53.7 L214.19,53.7 L214.19,58.13 C214.19,58.27 214.15,58.31 214,58.31 C213.85,58.33 213.35,58.33 212.78,58.31 C212.89,58.51 213,58.79 213.03,58.99 C213.74,58.99 214.22,58.98 214.52,58.87 C214.82,58.75 214.9,58.56 214.9,58.15 L214.9,53.7 Z M213.03,54.2 L212.34,54.2 L212.34,57.53 L213.03,57.53 L213.03,54.2 Z M208.66,56.01 L208.66,54.7 L209.89,54.7 L209.89,56.07 L208.66,56.07 L208.66,56.01 Z M209.89,56.73 L209.89,58.87 L210.59,58.87 L210.59,56.73 L211.72,56.73 L211.72,56.07 L210.59,56.07 L210.59,54.7 L211.52,54.7 L211.52,54.04 L207.04,54.04 L207.04,54.7 L207.97,54.7 L207.97,55.99 L207.97,56.07 L206.71,56.07 L206.71,56.73 L207.92,56.73 C207.8,57.4 207.49,58.07 206.62,58.6 C206.76,58.71 207.01,58.98 207.11,59.12 C208.12,58.48 208.49,57.59 208.61,56.73 L209.89,56.73 Z M211.43,61.73 L211.43,60.47 L214.45,60.47 L214.45,59.79 L211.43,59.79 L211.43,58.67 L210.68,58.67 L210.68,59.79 L207.54,59.79 L207.54,60.47 L210.68,60.47 L210.68,61.73 L206.51,61.73 L206.51,62.43 L215.49,62.43 L215.49,61.73 L211.43,61.73 Z" id="形状结合" fill="#838383" fill-rule="nonzero"></path>
            <path d="M114.376,177.44 L114.376,176.624 L109.276,176.624 C109.48,176.144 109.66,175.652 109.816,175.148 L108.952,174.956 C108.532,176.456 107.788,177.92 106.876,178.856 C107.092,178.976 107.44,179.252 107.608,179.396 C108.076,178.868 108.508,178.196 108.892,177.44 L114.376,177.44 Z M107.188,181.04 L107.068,180.212 L105.892,180.596 L105.892,178.196 L107.116,178.196 L107.116,177.368 L105.892,177.368 L105.892,174.968 L105.028,174.968 L105.028,177.368 L103.504,177.368 L103.504,178.196 L105.028,178.196 L105.028,180.86 C104.404,181.052 103.84,181.22 103.396,181.34 L103.612,182.204 C104.044,182.072 104.524,181.916 105.028,181.748 L105.028,184.796 C105.028,184.976 104.968,185.024 104.812,185.024 C104.68,185.024 104.212,185.024 103.696,185.012 C103.816,185.264 103.936,185.648 103.96,185.876 C104.728,185.888 105.184,185.852 105.472,185.708 C105.772,185.552 105.892,185.312 105.892,184.808 L105.892,181.472 L107.188,181.04 Z M110.128,185.048 C109.36,185.048 109.216,184.94 109.216,184.436 L109.216,181.328 L110.656,180.764 L110.656,183.908 L111.448,183.908 L111.448,180.464 L112.9,179.9 C112.888,181.316 112.876,182.348 112.84,182.516 C112.804,182.72 112.72,182.756 112.576,182.756 C112.468,182.756 112.144,182.756 111.904,182.744 C112.012,182.936 112.084,183.272 112.108,183.524 C112.396,183.536 112.792,183.524 113.068,183.44 C113.392,183.356 113.584,183.14 113.62,182.72 C113.668,182.372 113.68,180.86 113.692,179.228 L113.728,179.084 L113.152,178.868 L112.996,178.976 L112.924,179.036 L111.448,179.612 L111.448,177.812 L110.656,177.812 L110.656,179.924 L109.216,180.488 L109.216,178.772 L108.412,178.772 L108.412,180.788 L107.176,181.28 L107.452,182.012 L108.412,181.64 L108.412,184.436 C108.412,185.54 108.784,185.816 110.104,185.816 L112.96,185.816 C114.088,185.816 114.34,185.42 114.472,184.016 C114.232,183.968 113.896,183.836 113.704,183.704 C113.632,184.82 113.524,185.048 112.912,185.048 L110.128,185.048 Z M118.948,180.236 L117.796,180.608 L117.796,178.196 L119.02,178.196 L119.02,177.368 L117.796,177.368 L117.796,174.968 L116.956,174.968 L116.956,177.368 L115.624,177.368 L115.624,178.196 L116.956,178.196 L116.956,180.872 C116.392,181.04 115.876,181.196 115.456,181.304 L115.684,182.156 L116.956,181.76 L116.956,184.856 C116.956,185.012 116.896,185.06 116.752,185.06 C116.632,185.072 116.2,185.072 115.732,185.048 C115.84,185.3 115.96,185.672 115.984,185.9 C116.68,185.912 117.124,185.876 117.4,185.732 C117.688,185.576 117.796,185.336 117.796,184.856 L117.796,181.496 C118.228,181.352 118.66,181.196 119.08,181.052 L118.948,180.236 Z M120.328,180.524 L120.328,179.228 L122.212,179.228 C122.248,179.672 122.296,180.116 122.344,180.524 L120.328,180.524 Z M122.104,177.236 C122.116,177.656 122.14,178.076 122.164,178.472 L120.328,178.472 L120.328,177.236 L122.104,177.236 Z M124.924,177.236 L124.924,178.472 L123.016,178.472 C122.992,178.076 122.98,177.656 122.968,177.236 L124.924,177.236 Z M123.208,180.524 C123.16,180.116 123.112,179.672 123.076,179.228 L124.924,179.228 L124.924,180.524 L123.208,180.524 Z M124.936,181.688 C124.612,182.168 124.192,182.612 123.688,182.984 C123.544,182.492 123.412,181.928 123.304,181.292 L125.776,181.292 L125.776,176.456 L122.932,176.456 C122.932,175.976 122.92,175.496 122.932,174.98 L122.056,174.98 C122.056,175.484 122.068,175.976 122.08,176.456 L119.488,176.456 L119.488,181.94 L120.328,181.94 L120.328,181.292 L122.44,181.292 C122.572,182.108 122.728,182.852 122.944,183.488 C121.804,184.16 120.424,184.652 118.984,184.976 C119.152,185.168 119.404,185.564 119.488,185.768 C120.808,185.42 122.116,184.916 123.244,184.256 C123.736,185.312 124.396,185.924 125.296,185.924 C126.172,185.924 126.46,185.42 126.616,183.728 C126.4,183.656 126.1,183.476 125.92,183.284 C125.836,184.628 125.704,185.072 125.356,185.072 C124.804,185.072 124.336,184.616 123.976,183.788 C124.696,183.284 125.32,182.696 125.788,182.012 L124.936,181.688 Z M132.328,175.184 C132.124,175.664 131.728,176.348 131.428,176.78 L132.004,177.056 C132.34,176.66 132.724,176.06 133.072,175.52 L132.328,175.184 Z M129.52,176.804 C129.4,176.36 129.076,175.724 128.74,175.256 L128.092,175.52 C128.416,176.012 128.728,176.672 128.836,177.092 L129.52,176.804 Z M130.108,180.164 L130.936,180.164 L130.936,178.52 C131.512,178.928 132.256,179.516 132.544,179.792 L133.036,179.144 C132.76,178.94 131.728,178.268 131.128,177.92 L133.384,177.92 L133.384,177.176 L130.936,177.176 L130.936,174.956 L130.108,174.956 L130.108,177.176 L127.636,177.176 L127.636,177.92 L129.832,177.92 C129.244,178.7 128.356,179.432 127.516,179.792 C127.684,179.96 127.9,180.26 127.996,180.464 C128.728,180.08 129.508,179.42 130.108,178.712 L130.108,180.164 Z M131.932,181.88 C131.668,182.504 131.284,183.032 130.816,183.464 C130.384,183.248 129.904,183.02 129.46,182.828 C129.628,182.552 129.808,182.216 129.988,181.88 L131.932,181.88 Z M132.52,184.46 C132.256,184.268 131.896,184.052 131.512,183.836 C132.148,183.164 132.64,182.324 132.952,181.292 L132.448,181.088 L132.316,181.124 L130.36,181.124 C130.456,180.908 130.528,180.704 130.612,180.5 L129.82,180.356 C129.736,180.608 129.628,180.86 129.508,181.124 L127.888,181.124 L127.888,181.88 L129.136,181.88 C128.884,182.348 128.62,182.792 128.368,183.152 C128.956,183.368 129.604,183.668 130.204,183.98 C129.424,184.532 128.512,184.916 127.54,185.132 C127.696,185.3 127.876,185.624 127.96,185.816 C129.052,185.528 130.072,185.06 130.924,184.376 C131.332,184.604 131.692,184.844 131.968,185.048 L132.52,184.46 Z M136.684,178.1 C136.504,179.48 136.216,180.68 135.784,181.688 C135.328,180.62 134.992,179.396 134.764,178.1 L136.684,178.1 Z M138.328,178.1 L138.328,177.272 L134.944,177.272 C135.112,176.6 135.256,175.904 135.352,175.196 L134.536,175.076 C134.236,177.152 133.696,179.156 132.784,180.416 C132.976,180.536 133.312,180.812 133.456,180.956 C133.756,180.5 134.032,179.972 134.272,179.384 C134.536,180.572 134.872,181.652 135.328,182.588 C134.656,183.728 133.72,184.604 132.424,185.24 C132.58,185.408 132.832,185.768 132.916,185.96 C134.14,185.3 135.052,184.46 135.76,183.416 C136.348,184.436 137.104,185.252 138.028,185.816 C138.16,185.588 138.412,185.288 138.616,185.12 C137.62,184.592 136.84,183.704 136.228,182.612 C136.864,181.376 137.26,179.888 137.536,178.1 L138.328,178.1 Z M143.236,180.992 L143.116,180.176 L141.868,180.572 L141.868,178.196 L143.224,178.196 L143.224,177.368 L141.868,177.368 L141.868,174.968 L141.04,174.968 L141.04,177.368 L139.552,177.368 L139.552,178.196 L141.04,178.196 L141.04,180.824 C140.416,181.004 139.852,181.172 139.408,181.304 L139.624,182.156 C140.056,182.024 140.536,181.88 141.04,181.712 L141.04,184.796 C141.04,184.976 140.98,185.024 140.836,185.024 C140.704,185.024 140.224,185.024 139.708,185.012 C139.828,185.264 139.936,185.624 139.972,185.84 C140.728,185.852 141.184,185.816 141.46,185.672 C141.76,185.528 141.868,185.3 141.868,184.808 L141.868,181.436 L143.236,180.992 Z M144.604,179.888 C144.616,179.6 144.616,179.348 144.616,179.084 L144.616,178.568 L146.932,178.568 L146.932,179.888 L144.604,179.888 Z M149.188,176.264 L149.188,177.788 L144.616,177.788 L144.616,176.264 L149.188,176.264 Z M149.272,184.7 L145.588,184.7 L145.588,182.888 L149.272,182.888 L149.272,184.7 Z M150.448,180.656 L150.448,179.888 L147.784,179.888 L147.784,178.568 L150.04,178.568 L150.04,175.484 L143.752,175.484 L143.752,179.084 C143.752,180.98 143.644,183.584 142.408,185.42 C142.612,185.504 142.984,185.756 143.128,185.924 C144.136,184.448 144.46,182.432 144.568,180.656 L146.932,180.656 L146.932,182.132 L144.808,182.132 L144.808,185.936 L145.588,185.936 L145.588,185.444 L149.272,185.444 L149.272,185.888 L150.088,185.888 L150.088,182.132 L147.784,182.132 L147.784,180.656 L150.448,180.656 Z M161.116,180.848 C160.6,181.352 159.76,182.012 159.04,182.504 C158.512,181.88 158.092,181.172 157.768,180.38 L162.16,180.38 L162.16,179.612 L157.42,179.612 L157.42,178.544 L161.248,178.544 L161.248,177.8 L157.42,177.8 L157.42,176.792 L161.788,176.792 L161.788,176.024 L157.42,176.024 L157.42,174.956 L156.532,174.956 L156.532,176.024 L152.296,176.024 L152.296,176.792 L156.532,176.792 L156.532,177.8 L152.908,177.8 L152.908,178.544 L156.532,178.544 L156.532,179.612 L151.828,179.612 L151.828,180.38 L155.788,180.38 C154.66,181.388 152.968,182.324 151.48,182.792 C151.672,182.972 151.936,183.296 152.056,183.512 C152.716,183.26 153.436,182.936 154.12,182.54 L154.12,184.316 C154.12,184.784 153.856,185 153.664,185.096 C153.808,185.3 153.988,185.684 154.048,185.912 C154.324,185.72 154.756,185.576 158.08,184.508 C158.032,184.328 157.96,183.98 157.936,183.74 L155.032,184.616 L155.032,181.964 C155.74,181.484 156.388,180.944 156.904,180.38 C157.816,182.888 159.496,184.688 161.956,185.516 C162.088,185.276 162.352,184.928 162.544,184.748 C161.356,184.4 160.36,183.812 159.532,183.032 C160.288,182.564 161.164,181.952 161.848,181.364 L161.116,180.848 Z M181.924,176.24 C181.48,175.844 180.592,175.328 179.86,175.004 L179.344,175.556 C180.076,175.904 180.952,176.456 181.372,176.864 L181.924,176.24 Z M177.124,183.128 C175.18,183.536 173.14,183.944 171.844,184.196 L172.012,185.096 C173.404,184.784 175.36,184.364 177.196,183.968 L177.124,183.128 Z M175.864,181.664 L173.428,181.664 L173.428,179.588 L175.864,179.588 L175.864,181.664 Z M172.6,178.808 L172.6,182.432 L176.74,182.432 L176.74,178.808 L172.6,178.808 Z M180.892,178.604 C180.508,179.852 179.992,180.956 179.344,181.94 C179.044,180.776 178.84,179.336 178.72,177.752 L182.26,177.752 L182.26,176.876 L178.66,176.876 C178.636,176.264 178.624,175.64 178.624,174.992 L177.688,174.992 C177.7,175.628 177.712,176.252 177.748,176.876 L171.904,176.876 L171.904,177.752 L177.796,177.752 C177.952,179.696 178.216,181.472 178.636,182.876 C177.844,183.836 176.884,184.628 175.756,185.228 C175.96,185.384 176.308,185.732 176.452,185.912 C177.4,185.348 178.24,184.664 178.984,183.848 C179.524,185.144 180.244,185.924 181.144,185.924 C182.068,185.924 182.404,185.336 182.56,183.284 C182.308,183.2 181.984,182.996 181.78,182.78 C181.708,184.376 181.564,185 181.228,185 C180.64,185 180.1,184.256 179.656,183.02 C180.556,181.832 181.264,180.428 181.78,178.82 L180.892,178.604 Z M188.74,178.796 L188.74,177.26 L191.404,177.26 C190.84,177.8 190.228,178.316 189.58,178.796 L188.74,178.796 Z M191.992,182.792 L187.132,182.792 L187.132,181.604 L191.992,181.604 L191.992,182.792 Z M187.132,184.748 L187.132,183.5 L191.992,183.5 L191.992,184.748 L187.132,184.748 Z M194.368,179.6 L194.368,178.796 L190.912,178.796 C192.004,177.896 192.988,176.888 193.828,175.784 L193.072,175.376 C192.664,175.928 192.208,176.456 191.704,176.96 L191.704,176.468 L188.74,176.468 L188.74,174.968 L187.864,174.968 L187.864,176.468 L184.804,176.468 L184.804,177.26 L187.864,177.26 L187.864,178.796 L183.76,178.796 L183.76,179.6 L188.428,179.6 C186.916,180.572 185.236,181.364 183.496,181.976 C183.664,182.156 183.952,182.516 184.06,182.708 C184.792,182.432 185.536,182.108 186.256,181.76 L186.256,185.912 L187.132,185.912 L187.132,185.528 L191.992,185.528 L191.992,185.864 L192.904,185.864 L192.904,180.848 L187.948,180.848 C188.608,180.464 189.256,180.044 189.88,179.6 L194.368,179.6 Z M206.752,176.204 C206.308,175.892 205.444,175.424 204.808,175.136 L204.304,175.772 C204.964,176.084 205.804,176.6 206.224,176.924 L206.752,176.204 Z M205.972,179.336 C205.552,179.048 204.7,178.604 204.076,178.34 L203.608,179 C204.244,179.3 205.072,179.768 205.48,180.08 L205.972,179.336 Z M204.748,185.6 C205.216,184.508 205.732,183.044 206.128,181.82 L205.42,181.292 C204.988,182.612 204.388,184.172 203.944,185.084 L204.748,185.6 Z M208.06,181.52 C207.772,182.372 207.268,183.44 206.62,184.076 L207.304,184.532 C207.94,183.812 208.432,182.696 208.756,181.82 L208.06,181.52 Z M209.512,184.94 C209.512,185.072 209.476,185.12 209.308,185.12 C209.152,185.132 208.636,185.132 208.036,185.12 C208.144,185.36 208.252,185.684 208.288,185.924 C209.092,185.924 209.608,185.924 209.932,185.78 C210.256,185.636 210.34,185.408 210.34,184.94 L210.34,180.248 L209.512,180.248 L209.512,184.94 Z M210.82,181.952 C211.18,182.744 211.516,183.788 211.624,184.484 L212.344,184.22 C212.224,183.548 211.876,182.504 211.504,181.712 L210.82,181.952 Z M212.272,181.616 C212.92,182.528 213.568,183.752 213.844,184.556 L214.576,184.208 C214.288,183.404 213.616,182.192 212.956,181.316 L212.272,181.616 Z M214.54,178.916 L214.54,178.076 L210.124,178.076 C210.34,177.56 210.52,177.008 210.64,176.456 L214.132,176.456 L214.132,175.628 L207.052,175.628 L207.052,176.456 L209.704,176.456 C209.572,177.008 209.392,177.56 209.164,178.076 L206.512,178.076 L206.512,178.916 L208.72,178.916 C208.132,179.888 207.316,180.716 206.2,181.268 C206.356,181.436 206.62,181.76 206.74,181.952 C208.096,181.244 209.068,180.176 209.728,178.916 L211.228,178.916 C211.888,180.116 213.004,181.196 214.156,181.76 C214.288,181.532 214.552,181.232 214.744,181.064 C213.736,180.644 212.764,179.828 212.14,178.916 L214.54,178.916 Z M221.032,177.14 L218.464,177.14 C218.488,176.408 218.5,175.688 218.5,174.992 L217.612,174.992 C217.612,175.676 217.612,176.408 217.588,177.14 L215.908,177.14 L215.908,178.016 L217.564,178.016 C217.444,180.812 217.048,183.596 215.644,185.264 C215.884,185.396 216.184,185.66 216.352,185.864 C217.852,184.004 218.296,181.016 218.44,178.016 L220.132,178.016 C219.94,182.516 219.724,184.172 219.388,184.556 C219.268,184.712 219.16,184.76 218.968,184.76 C218.752,184.76 218.296,184.748 217.792,184.7 C217.936,184.952 218.032,185.336 218.056,185.612 C218.56,185.648 219.052,185.648 219.364,185.6 C219.712,185.564 219.94,185.468 220.18,185.144 C220.612,184.592 220.804,182.816 221.032,177.608 L221.032,177.14 Z M222.808,184.004 L222.808,177.32 L225.136,177.32 L225.136,184.004 L222.808,184.004 Z M221.932,176.456 L221.932,185.744 L222.808,185.744 L222.808,184.868 L225.136,184.868 L225.136,185.66 L226.048,185.66 L226.048,176.456 L221.932,176.456 Z M229.816,181.052 L229.816,179.768 L232.648,179.768 L232.648,181.052 L229.816,181.052 Z M229.816,177.788 L232.648,177.788 L232.648,179.048 L229.816,179.048 L229.816,177.788 Z M236.524,179.048 L233.548,179.048 L233.548,177.788 L236.524,177.788 L236.524,179.048 Z M236.524,181.052 L233.548,181.052 L233.548,179.768 L236.524,179.768 L236.524,181.052 Z M238.456,182.948 L233.548,182.948 L233.548,181.808 L237.424,181.808 L237.424,177.032 L235.42,177.032 C235.792,176.528 236.224,175.904 236.572,175.34 L235.624,175.016 C235.336,175.616 234.844,176.456 234.424,177.032 L231.532,177.032 L232.024,176.78 C231.784,176.288 231.232,175.556 230.728,175.016 L229.984,175.376 C230.416,175.868 230.884,176.552 231.148,177.032 L228.94,177.032 L228.94,181.808 L232.648,181.808 L232.648,182.948 L227.812,182.948 L227.812,183.776 L232.648,183.776 L232.648,185.912 L233.548,185.912 L233.548,183.776 L238.456,183.776 L238.456,182.948 Z M249.388,175.904 L240.94,175.904 L240.94,176.756 L249.388,176.756 L249.388,175.904 Z M247.588,184.856 C247.12,184.856 247.024,184.772 247.024,184.364 L247.024,180.104 L250.396,180.104 L250.396,179.24 L239.896,179.24 L239.896,180.104 L242.932,180.104 C242.752,182.348 242.308,184.22 239.752,185.192 C239.956,185.348 240.208,185.672 240.316,185.888 C243.076,184.772 243.652,182.672 243.88,180.104 L246.124,180.104 L246.124,184.376 C246.124,185.396 246.412,185.708 247.48,185.708 L249.196,185.708 C250.24,185.708 250.48,185.144 250.576,183.104 C250.336,183.032 249.952,182.876 249.748,182.708 C249.688,184.544 249.616,184.856 249.136,184.856 L247.588,184.856 Z M260.716,182.324 L260.716,184.484 L257.188,184.484 L257.188,182.324 L260.716,182.324 Z M256.336,185.9 L257.188,185.9 L257.188,185.288 L260.716,185.288 L260.716,185.876 L261.592,185.876 L261.592,181.532 L256.336,181.532 L256.336,185.9 Z M257.572,176.972 L260.752,176.972 C260.32,177.716 259.732,178.364 259.036,178.928 C258.4,178.4 257.872,177.776 257.5,177.092 L257.572,176.972 Z M261.412,176.132 L261.256,176.168 L258.004,176.168 C258.16,175.832 258.316,175.484 258.448,175.136 L257.656,174.92 C257.188,176.204 256.408,177.452 255.52,178.268 C255.7,178.424 255.964,178.796 256.072,178.952 C256.408,178.616 256.744,178.232 257.044,177.8 C257.416,178.376 257.86,178.916 258.4,179.384 C257.476,180.008 256.408,180.476 255.328,180.8 L255.736,180.308 C255.52,179.996 254.596,178.712 254.296,178.364 L254.296,178.1 L255.604,178.1 L255.604,177.26 L254.296,177.26 L254.296,174.956 L253.444,174.956 L253.444,177.26 L251.764,177.26 L251.764,178.1 L253.312,178.1 C252.964,179.72 252.244,181.604 251.512,182.588 C251.668,182.804 251.884,183.188 251.968,183.44 C252.52,182.636 253.048,181.316 253.444,179.972 L253.444,185.912 L254.296,185.912 L254.296,179.444 C254.596,179.936 254.932,180.512 255.124,180.872 L255.064,180.884 C255.208,181.052 255.448,181.436 255.532,181.664 C256.768,181.268 258.004,180.692 259.072,179.936 C260.02,180.632 261.148,181.172 262.36,181.532 C262.42,181.292 262.564,180.932 262.696,180.716 C261.604,180.452 260.584,180.008 259.72,179.432 C260.668,178.628 261.448,177.656 261.964,176.48 L261.412,176.132 Z M272.056,175.184 C271.768,175.688 271.252,176.396 270.856,176.864 L271.576,177.14 C271.996,176.72 272.536,176.084 272.98,175.472 L272.056,175.184 Z M267.388,176.828 C267.16,176.372 266.596,175.688 266.08,175.22 L265.336,175.58 C265.84,176.06 266.38,176.768 266.608,177.224 L267.388,176.828 Z M268.66,180.452 L269.536,180.452 L269.536,178.664 C271.048,179.42 272.836,180.38 273.796,181.004 L274.228,180.284 C273.292,179.696 271.564,178.82 270.088,178.112 L274.276,178.112 L274.276,177.284 L269.536,177.284 L269.536,174.968 L268.66,174.968 L268.66,177.284 L264.028,177.284 L264.028,178.112 L267.94,178.112 C266.968,179.12 265.372,179.948 263.8,180.32 C264.004,180.5 264.256,180.824 264.376,181.04 C266.008,180.572 267.616,179.624 268.66,178.448 L268.66,180.452 Z M274.324,182.84 L274.324,182 L269.392,182 C269.488,181.604 269.56,181.172 269.62,180.716 L268.696,180.716 C268.636,181.172 268.564,181.616 268.456,182 L263.968,182 L263.968,182.84 L268.132,182.84 C267.532,183.944 266.332,184.7 263.716,185.108 C263.896,185.3 264.112,185.684 264.184,185.924 C267.16,185.396 268.468,184.4 269.104,182.912 C270.028,184.592 271.672,185.54 274.072,185.924 C274.192,185.66 274.432,185.288 274.636,185.084 C272.464,184.844 270.88,184.1 270.004,182.84 L274.324,182.84 Z M285.808,175.04 L284.956,175.04 L284.956,180.356 C284.956,180.524 284.908,180.572 284.728,180.572 C284.548,180.596 283.948,180.596 283.264,180.572 C283.396,180.812 283.528,181.148 283.564,181.388 C284.416,181.388 284.992,181.376 285.352,181.244 C285.712,181.1 285.808,180.872 285.808,180.38 L285.808,175.04 Z M283.564,175.64 L282.736,175.64 L282.736,179.636 L283.564,179.636 L283.564,175.64 Z M278.32,177.812 L278.32,176.24 L279.796,176.24 L279.796,177.884 L278.32,177.884 L278.32,177.812 Z M279.796,178.676 L279.796,181.244 L280.636,181.244 L280.636,178.676 L281.992,178.676 L281.992,177.884 L280.636,177.884 L280.636,176.24 L281.752,176.24 L281.752,175.448 L276.376,175.448 L276.376,176.24 L277.492,176.24 L277.492,177.788 L277.492,177.884 L275.98,177.884 L275.98,178.676 L277.432,178.676 C277.288,179.48 276.916,180.284 275.872,180.92 C276.04,181.052 276.34,181.376 276.46,181.544 C277.672,180.776 278.116,179.708 278.26,178.676 L279.796,178.676 Z M281.644,184.676 L281.644,183.164 L285.268,183.164 L285.268,182.348 L281.644,182.348 L281.644,181.004 L280.744,181.004 L280.744,182.348 L276.976,182.348 L276.976,183.164 L280.744,183.164 L280.744,184.676 L275.74,184.676 L275.74,185.516 L286.516,185.516 L286.516,184.676 L281.644,184.676 Z" id="形状结合" fill="#838383" fill-rule="nonzero"></path>
        </g>
    </g>
</svg>